<?xml version="1.0" encoding="utf-8"?>
<!-- Generator: Adobe Illustrator 16.0.3, SVG Export Plug-In . SVG Version: 6.00 Build 0)  -->
<!DOCTYPE svg PUBLIC "-//W3C//DTD SVG 1.1//EN" "http://www.w3.org/Graphics/SVG/1.1/DTD/svg11.dtd">
<svg version="1.1" id="Layer_1" xmlns="http://www.w3.org/2000/svg" xmlns:xlink="http://www.w3.org/1999/xlink" x="0px" y="0px"
	 width="498px" height="380px" viewBox="41.833 127.833 498 380" enable-background="new 41.833 127.833 498 380"
	 xml:space="preserve">
<path fill="none" stroke="#828282" stroke-width="10" stroke-miterlimit="10" d="M53.5,424.5
	c8.864,1.346,11.739,8.467,19.001,12.495c6.175,3.425,11.542,5.496,18.312,7.052c7.943,1.825,12.833,3.845,20.031,7.515
	c6.416,3.271,11.121,7.785,16.805,12.273c4.611,3.642,12.607,4.523,18.451,5.439c6.889,1.08,14.48,0.284,21.432,0.235
	c6.009-0.043,12.205,0.715,18.096,1.881c6.126,1.213,12.43,5.401,18.648,4.961c3.063-0.218,5.289-1.216,8.294-0.104
	c3.99,1.477,7.938,3.984,11.83,5.78c5.365,2.475,13.668-1.116,18.869-3.724c6.074-3.045,8.689-13.816,10.802-19.639
	c3.043-8.385,5.551-16.947,7.912-25.546c2.416-8.804,3.048-18.379,4.436-27.414c1.424-9.272,2.967-18.561,4.167-27.864
	c1.521-11.782,2.679-23.63,3.989-35.438c1.232-11.117,2.2-22.015,2.832-33.191c1.422-25.132,3.622-50.075,6.658-75.066
	c1.661-13.666,2.868-27.422,4.134-41.127c1.391-15.066,0.549-46.145,13.204-44.309c6.221,2.539,7.637,11.535,9.353,17.608
	c0.845,2.991,1.085,6.489,1.636,9.574c0.823,4.603,1.549,9.221,2.293,13.839c1.916,11.902,3.801,23.807,5.697,35.712
	c1.918,12.038,4.046,24.043,6.117,36.056c1.61,6.212,3.192,12.433,4.822,18.641c2.873,10.942,3.771,21.857,5.268,33.035
	c1.306,9.759,2.765,19.499,4.028,29.264c0.64,4.941,0.657,10.372,1.918,15.189c1.298,4.959,3.977,9.934,5.882,14.69
	c1.5,3.744,3.309,7.465,4.305,11.364c1.262,4.942,1.543,10.14,2.852,15.069c1.318,4.966,3.363,9.776,4.902,14.685
	c3.286,10.478,2.064,19.068,15.599,16.402c6.652-1.31,6.649-1.847,12.514,1.289c6.168,3.3,12.814,3.178,19.54,4.171
	c6.187,0.914,10.969,3.463,16.89,5.021c2.21,0.581,4.382-0.248,6.684-0.45c2.485-0.219,5.307,0.331,7.706-0.315
	c4.396-1.185,8.688-6.196,13.275-5.993c2.49,0.11,4.517,2.259,7.15,1.938c2.421-0.295,5.194-2.319,7.476-3.223
	c4.91-1.946,8.021-6.597,12.348-9.802c3.84-2.844,8.688-4.23,13.108-6.261c3.604-1.655,7.528-5.144,11.32-5.865
	c5.304-1.01,11.983,0.261,17.435,0.226c0.667-0.004,1.314-0.012,1.979-0.075"/>
<path d="M205.91,209.565c-3.18-3.125-8.292-3.125-11.416,0.057c-3.124,3.123-3.124,8.235,0,11.358l201.914,202.027
	c2.101,2.102,5.111,2.783,7.78,2.043c1.363-0.34,2.612-1.078,3.635-2.102c3.125-3.121,3.125-8.232,0-11.355L205.91,209.565z
	 M303.544,367.348c-30.101,1.363-54.865-23.401-53.446-53.447c0.341-6.931,2.045-13.517,4.885-19.482l-30.33-30.385
	c-15.733,12.156-31.465,27.775-48.335,46.175c-3.124,3.465-3.18,8.635-0.057,12.098c36.861,40.725,69.35,75.768,124.783,75.768
	c16.868,0,32.431-4.205,46.744-10.904l-24.706-24.707C317.063,365.303,310.475,367.006,303.544,367.348z M425.999,321.967
	c3.009-3.294,3.18-8.293,0.283-11.758c-29.703-36.065-70.883-75.71-125.237-75.71c-16.527,0-31.806,3.75-46.573,10.792l24.82,24.82
	c5.964-2.839,12.552-4.599,19.482-4.884c30.102-1.362,54.866,23.4,53.445,53.447c-0.34,6.93-2.044,13.516-4.885,19.481
	l30.387,30.385C396.463,354.17,412.539,336.792,425.999,321.967L425.999,321.967z"/>
<path d="M264.923,319.071c1.364,17.775,15.676,32.089,33.453,33.452c4.657,0.342,9.146-0.17,13.292-1.479l-45.326-45.323
	C265.094,309.925,264.582,314.413,264.923,319.071L264.923,319.071z M337.509,316.288c0-0.739-0.057-1.479-0.057-2.216
	c-3.18,1.418-6.644,2.216-10.338,2.216c-0.623,0-1.192,0-1.759-0.058l10.564,10.623
	C336.942,323.499,337.509,319.923,337.509,316.288L337.509,316.288z M301.158,289.593c0-3.408,0.626-6.646,1.762-9.6
	c-0.567,0-1.136-0.056-1.762-0.056c-3.634,0-7.155,0.569-10.506,1.59l10.621,10.621
	C301.217,291.296,301.158,290.444,301.158,289.593z"/>
</svg>
